<?xml version="1.0" standalone="no"?>
<!DOCTYPE svg PUBLIC "-//W3C//DTD SVG 20010904//EN"
 "http://www.w3.org/TR/2001/REC-SVG-20010904/DTD/svg10.dtd">
<svg version="1.0" xmlns="http://www.w3.org/2000/svg"
 width="600.000000pt" height="600.000000pt" viewBox="0 0 600.000000 600.000000"
 preserveAspectRatio="xMidYMid meet">
<metadata>
Created by potrace 1.14, written by Peter Selinger 2001-2017
</metadata>
<g transform="translate(0.000000,600.000000) scale(0.100000,-0.100000)"
fill="#000000" stroke="none">
<path d="M3117 5910 c-103 -13 -200 -60 -250 -120 -15 -17 -27 -40 -27 -50 0
-16 -4 -16 -57 6 -42 17 -78 24 -129 24 -88 0 -151 -18 -234 -68 -36 -22 -92
-47 -125 -57 -154 -44 -304 -152 -342 -245 -8 -19 -28 -62 -44 -94 -16 -33
-29 -73 -29 -91 0 -32 -1 -32 -87 -54 -49 -12 -106 -30 -128 -40 -145 -66
-137 -63 -125 -41 19 36 -11 23 -57 -25 -40 -42 -62 -58 -48 -35 17 28 -24 4
-66 -38 -34 -34 -49 -59 -55 -87 -8 -44 7 -129 30 -176 14 -28 14 -30 -2 -27
-28 5 -54 93 -55 191 -1 76 -3 86 -14 70 -29 -39 -43 -112 -34 -182 13 -101
57 -173 136 -223 l30 -18 -35 6 c-60 12 -116 41 -154 80 -41 43 -48 27 -11
-28 36 -54 116 -88 209 -91 46 -1 72 -6 68 -12 -20 -36 -90 -108 -127 -132
-25 -15 -45 -31 -45 -35 0 -13 65 -9 78 4 8 8 12 9 12 1 0 -14 -88 -103 -101
-103 -14 0 -11 -17 6 -33 13 -13 11 -16 -15 -27 -16 -7 -28 -16 -25 -20 3 -5
-7 -13 -22 -18 -52 -19 3 -12 60 7 l56 20 -6 -52 c-3 -29 -13 -61 -23 -72 -17
-20 -23 -55 -10 -55 4 0 18 9 32 19 38 30 52 14 34 -40 -11 -32 -12 -45 -4
-51 16 -9 27 -1 38 26 7 18 9 16 9 -15 1 -33 15 -59 33 -59 4 0 8 8 8 18 0 33
12 32 37 -5 22 -32 25 -49 28 -147 1 -61 7 -129 13 -151 13 -49 20 -140 29
-355 8 -180 8 -172 5 -475 -2 -359 -2 -362 8 -340 8 18 9 18 9 -5 1 -15 6 -31
13 -38 12 -12 29 -100 31 -164 1 -40 12 -50 21 -20 3 9 3 -3 1 -28 -5 -42 -4
-44 11 -25 15 19 15 18 9 -18 -5 -27 -4 -37 4 -35 8 2 14 -15 16 -46 3 -27 11
-57 20 -66 8 -9 15 -25 15 -36 1 -10 9 -37 20 -59 11 -22 19 -49 20 -60 0 -25
64 -160 80 -170 6 -4 23 -32 37 -63 14 -32 27 -51 30 -44 3 8 20 -10 40 -42
19 -31 38 -56 43 -56 5 0 12 -10 16 -22 6 -21 7 -22 14 -4 5 16 9 14 28 -18
12 -20 27 -35 33 -34 7 2 24 -21 39 -50 29 -56 71 -271 77 -393 l3 -66 -57
-16 c-74 -20 -272 -114 -434 -205 -69 -38 -179 -97 -245 -130 -65 -33 -144
-77 -174 -97 -74 -50 -93 -59 -175 -80 -38 -10 -136 -40 -216 -66 -80 -26
-198 -59 -261 -73 -64 -14 -150 -35 -192 -45 -77 -19 -216 -82 -237 -107 -10
-12 402 -14 2880 -14 l2891 0 0 494 0 494 -97 5 c-119 7 -265 21 -353 35 -148
24 -246 31 -853 61 -123 6 -172 12 -182 22 -12 13 -42 89 -87 224 -11 33 -37
126 -58 207 -35 133 -48 193 -80 378 -19 105 -40 364 -40 484 l0 121 28 -1
c16 0 34 -4 40 -8 7 -4 12 -3 12 2 0 5 22 12 49 14 192 19 262 182 255 594 -2
147 -17 237 -45 270 -12 14 -3 57 10 49 5 -2 11 21 15 53 9 79 12 100 24 162
6 30 10 62 10 70 0 8 3 87 7 175 8 167 -3 318 -32 444 -18 79 -62 213 -74 226
-5 5 -9 23 -9 41 0 17 -10 44 -22 60 -18 23 -19 27 -5 21 9 -3 17 -2 17 3 0
12 -43 42 -109 75 -49 24 -53 29 -38 40 24 17 21 22 -13 30 -35 8 -48 23 -26
31 24 9 9 24 -24 24 -18 0 -34 8 -44 22 -22 31 -21 35 17 47 36 12 95 56 86
65 -3 3 -29 -3 -57 -14 -90 -34 -129 -27 -176 34 l-27 36 33 -6 c30 -5 31 -4
16 9 -16 13 -16 15 10 27 25 12 26 13 7 21 -11 4 -34 8 -52 8 -28 1 -37 10
-91 95 -33 51 -76 128 -95 170 -27 58 -54 95 -111 153 -42 43 -76 81 -76 86 0
4 -16 17 -35 28 -19 12 -35 23 -35 25 0 9 78 -29 139 -67 35 -22 65 -38 68
-36 8 9 -92 88 -141 111 -29 14 -84 33 -122 42 -41 10 -81 28 -100 44 -104 89
-260 131 -417 110z m-352 -189 c17 -10 14 -11 -25 -6 -25 3 -69 7 -99 10 -88
8 -74 18 19 13 47 -2 94 -10 105 -17z m-202 2 c-7 -2 -21 -2 -30 0 -10 3 -4 5
12 5 17 0 24 -2 18 -5z m92 -883 c6 -10 63 -7 103 5 20 7 22 4 22 -24 0 -17 5
-31 10 -31 6 0 10 6 10 14 0 8 7 17 16 20 12 5 14 1 9 -15 -5 -13 -3 -19 3
-15 5 3 63 -1 127 -9 78 -9 124 -11 136 -5 26 15 46 13 31 -2 -21 -21 -13 -31
22 -25 18 3 38 2 42 -2 11 -10 108 -31 140 -31 13 0 24 -4 24 -9 0 -6 25 -18
56 -28 40 -12 51 -19 37 -24 -14 -5 -10 -9 20 -18 20 -7 55 -28 78 -47 22 -19
45 -34 50 -34 5 0 9 -4 9 -10 0 -5 23 -31 51 -57 64 -59 111 -144 73 -129 -20
8 -17 -8 5 -28 11 -10 25 -32 32 -49 7 -18 19 -40 28 -50 32 -38 19 -49 -16
-16 l-36 34 34 -44 c19 -24 50 -62 70 -85 54 -62 122 -201 157 -321 44 -148
60 -629 26 -744 -13 -45 -18 -52 -24 -36 -5 15 -9 5 -15 -35 -6 -43 -14 -61
-37 -81 -16 -15 -30 -39 -32 -55 -2 -16 -10 -30 -18 -32 -8 -2 -21 -20 -28
-40 -6 -21 -21 -42 -33 -48 -20 -9 -29 -21 -43 -59 -6 -19 -7 -18 -14 5 -5 16
-8 19 -9 8 -1 -20 -30 -25 -32 -5 -1 6 -5 -1 -9 -18 -6 -24 -8 -26 -9 -7 -1
30 -21 28 -21 -3 0 -18 -4 -23 -15 -19 -10 4 -15 0 -16 -12 0 -18 -1 -18 -8 0
-7 18 -8 18 -14 2 -5 -12 -13 -15 -26 -11 -13 4 -20 0 -24 -15 -9 -35 -29 -24
-22 13 5 28 4 30 -6 12 -7 -11 -13 -32 -14 -48 -2 -40 -21 -55 -29 -22 -4 14
-4 30 -1 35 4 6 2 10 -4 10 -5 0 -14 -19 -19 -42 -5 -24 -14 -42 -20 -40 -7 1
-12 -2 -12 -8 0 -5 -5 -10 -11 -10 -7 0 -9 9 -6 23 6 22 6 22 -11 2 -22 -26
-59 -55 -48 -37 4 6 3 12 -3 12 -7 0 -7 8 -1 25 6 16 6 25 0 25 -5 0 -13 -18
-16 -40 -11 -65 -24 -57 -24 15 0 42 4 64 10 60 15 -9 12 35 -6 87 -11 34 -19
45 -32 41 -10 -2 -34 11 -57 31 -25 23 -43 32 -50 26 -7 -6 -15 -2 -23 11 -10
16 -16 17 -32 9 -13 -7 -20 -7 -20 -1 0 6 -12 14 -27 17 -16 4 -42 18 -59 31
-17 12 -34 20 -37 17 -3 -4 -21 3 -40 15 -19 11 -37 18 -41 14 -3 -3 -16 2
-29 13 -26 23 -95 57 -119 60 -10 1 -26 7 -35 15 -16 13 -17 12 -5 -3 12 -15
9 -16 -30 -13 -24 2 -58 6 -75 10 -23 5 -33 4 -33 -5 0 -7 -6 -10 -15 -6 -8 3
-22 9 -30 12 -11 4 -13 2 -10 -9 5 -11 0 -13 -21 -9 -29 5 -29 9 -6 -93 16
-75 45 -100 101 -89 14 3 45 -1 68 -10 22 -8 43 -12 46 -10 7 8 136 -17 142
-27 6 -9 85 -34 99 -30 5 1 16 -5 26 -14 9 -8 23 -13 31 -11 8 3 28 -6 44 -20
l30 -25 -105 6 c-58 3 -121 8 -140 11 -19 4 -145 8 -280 10 -135 2 -258 4
-275 5 -45 3 -98 -3 -112 -14 -7 -5 -20 -7 -28 -3 -8 3 -15 1 -15 -4 0 -5 -19
-7 -42 -5 l-43 4 25 -21 c21 -17 33 -19 80 -13 30 3 188 8 350 11 231 3 305 1
340 -10 84 -25 228 -10 252 28 9 13 64 -37 85 -79 28 -53 39 -125 30 -190 -5
-33 -12 -62 -16 -65 -5 -3 -14 -22 -20 -42 -7 -21 -17 -38 -22 -38 -5 0 -4 11
1 26 6 14 10 32 10 40 0 14 -2 14 -15 0 -8 -8 -15 -21 -15 -29 0 -8 -7 -17
-15 -21 -8 -3 -15 -1 -15 4 0 6 -4 10 -10 10 -5 0 -10 -9 -10 -20 0 -11 -7
-20 -15 -20 -8 0 -21 -16 -29 -35 -8 -19 -20 -35 -26 -35 -8 0 -8 6 0 20 6 11
7 20 2 20 -5 0 -14 -10 -21 -22 l-11 -23 6 22 c4 18 2 22 -10 17 -9 -3 -16
-11 -16 -16 0 -12 -41 -58 -52 -58 -4 0 -4 8 -1 17 7 17 6 17 -20 0 -14 -9
-33 -17 -40 -17 -8 0 -20 -6 -26 -14 -8 -10 -30 -13 -74 -11 -34 1 -72 -1 -84
-6 -28 -10 -43 8 -50 62 -5 37 -4 41 10 36 14 -5 17 0 17 27 0 19 12 51 29 77
32 50 49 124 26 115 -7 -2 -33 4 -56 16 -33 16 -47 18 -60 9 -10 -6 -20 -7
-23 -2 -3 5 -34 6 -70 4 -41 -4 -66 -2 -70 6 -11 17 -26 13 -26 -6 0 -13 -3
-14 -12 -5 -15 15 -84 16 -93 2 -3 -6 -16 -10 -29 -10 -29 0 -46 -18 -46 -49
1 -26 1 -26 14 4 12 28 13 26 8 -27 -3 -39 -1 -58 7 -58 6 0 11 -13 11 -29 0
-16 6 -34 13 -40 11 -9 13 -3 7 34 -4 25 -4 45 1 45 9 0 19 -26 19 -49 0 -10
9 -28 20 -41 22 -25 25 -56 10 -80 -9 -13 -10 -13 -10 1 0 8 -5 20 -11 26 -14
14 -39 6 -33 -10 2 -7 -6 -12 -21 -12 -20 0 -24 4 -19 20 l6 20 -20 -20 c-10
-11 -18 -23 -15 -27 2 -5 0 -8 -5 -8 -5 0 -25 19 -43 43 -22 27 -40 41 -51 39
-10 -2 -18 -2 -18 0 0 10 -52 143 -59 152 -5 6 -13 73 -17 148 -6 114 -4 139
9 158 17 24 65 53 76 45 4 -2 23 8 42 24 36 29 74 48 64 31 -3 -6 -1 -10 4
-10 6 0 11 5 11 11 0 6 9 8 20 4 11 -3 20 -2 20 4 0 6 20 9 45 7 33 -2 48 2
55 13 7 13 10 13 25 1 15 -12 19 -11 36 10 27 36 42 97 34 147 -7 48 -11 50
-43 27 -23 -16 -30 -6 -10 14 9 9 9 12 1 12 -7 0 -15 -5 -19 -11 -4 -7 -22 -9
-45 -6 -22 3 -42 1 -45 -4 -8 -14 -22 -11 -26 7 -3 13 -8 12 -33 -7 -18 -14
-24 -16 -16 -6 11 14 11 17 0 17 -7 0 -36 -25 -65 -54 -28 -30 -63 -58 -77
-61 -14 -4 -33 -15 -43 -26 -9 -10 -24 -19 -32 -19 -19 0 -96 -79 -118 -122
-12 -23 -15 -47 -11 -87 5 -54 4 -55 -9 -25 -7 18 -25 41 -39 52 -14 11 -25
29 -25 41 0 22 -20 30 -21 9 0 -7 -8 6 -18 30 -9 24 -21 42 -27 40 -5 -2 -8
-5 -7 -8 2 -4 10 -28 31 -90 8 -23 9 -34 4 -44 -9 -17 -53 119 -47 148 3 19
-4 45 -20 78 -14 27 -25 60 -25 73 0 13 -5 36 -11 52 -7 18 -12 173 -15 422
-3 339 -2 392 10 382 11 -10 21 -9 43 2 78 41 266 74 441 79 85 2 96 5 123 29
l29 26 -29 30 c-37 39 -122 71 -209 79 -115 11 -275 -42 -356 -116 -25 -24
-46 -39 -46 -34 0 5 14 79 31 164 34 166 73 269 149 386 22 33 40 65 40 70 0
20 80 87 136 114 33 16 53 29 45 30 -30 1 21 38 82 61 34 12 64 26 67 29 3 4
18 10 34 14 16 4 30 15 33 26 6 22 58 36 94 25 18 -6 21 -4 15 10 -5 14 -3 15
6 7 22 -17 63 -19 62 -2 -1 12 11 15 53 15 38 0 53 4 53 14 0 11 4 11 23 -2
18 -12 24 -12 35 -1 6 7 9 20 6 28 -7 17 11 22 21 6z m-365 -951 c0 -6 -4 -7
-10 -4 -5 3 -10 11 -10 16 0 6 5 7 10 4 6 -3 10 -11 10 -16z m-576 -111 c-2
-3 -13 -6 -24 -5 -24 2 -18 13 9 13 11 0 18 -4 15 -8z m2807 -348 c24 -13 45
-54 65 -127 11 -43 15 -102 14 -223 -1 -180 -1 -181 -24 -288 -32 -152 -106
-213 -271 -226 -81 -7 -97 -3 -107 25 -8 21 18 296 36 389 8 41 16 100 17 130
1 53 2 54 9 17 4 -21 13 -43 19 -50 10 -10 12 -1 10 43 -4 101 0 136 21 160
11 13 20 28 20 35 0 7 9 20 19 29 15 13 20 14 23 4 3 -8 10 -3 19 14 16 30 75
78 97 78 7 0 22 -5 33 -10z m-2797 -741 c8 -30 13 -55 11 -57 -4 -4 -25 58
-31 95 -8 45 5 20 20 -38z m2489 -381 c6 -210 39 -503 66 -593 5 -16 19 -77
31 -135 21 -97 106 -372 145 -465 35 -85 46 -110 53 -121 39 -62 82 -122 95
-133 15 -12 10 -20 -52 -81 -38 -38 -81 -75 -97 -83 -27 -14 -171 -62 -664
-222 -444 -145 -399 -135 -640 -145 -628 -27 -634 -27 -825 23 -92 24 -112 35
-184 99 l-52 47 76 83 c85 94 92 111 99 248 3 74 -2 131 -24 260 -16 91 -31
176 -35 190 -4 14 -3 20 2 13 11 -15 121 -53 155 -53 15 0 30 -5 33 -10 4 -6
32 -10 63 -10 82 2 186 -5 198 -12 5 -4 23 -1 39 6 71 31 158 36 216 12 10 -5
27 4 48 26 25 26 34 30 41 19 7 -12 15 -13 52 -2 24 7 50 19 58 26 8 8 29 13
47 13 17 -1 46 8 64 20 19 11 63 27 99 36 38 10 100 38 150 68 47 28 88 53 92
55 4 2 5 -3 2 -11 -13 -33 25 -13 84 44 24 22 57 43 72 47 16 3 39 16 51 29
12 13 31 24 41 24 16 0 48 37 84 96 10 16 11 15 7 -11 l-4 -30 21 25 c11 14
29 35 39 47 10 12 29 44 41 70 12 26 25 55 29 63 5 9 12 31 16 50 4 19 11 41
16 50 4 8 28 67 53 130 47 121 59 177 61 275 2 148 4 168 18 156 10 -8 15 -66
20 -233z m-903 107 c-16 -91 -24 -107 -43 -80 -16 21 -20 165 -5 165 4 0 9
-10 9 -22 1 -13 2 -31 3 -40 2 -33 21 -23 24 12 1 19 5 42 9 50 13 35 15 -15
3 -85z"/>
<path d="M2975 4053 c-55 -8 -109 -16 -120 -18 -11 -2 -27 -4 -35 -4 -8 -1
-26 -11 -40 -22 -14 -11 -20 -18 -13 -15 9 5 10 -4 6 -30 -5 -28 -3 -35 6 -30
8 6 11 2 9 -10 -4 -22 9 -23 117 -6 129 21 280 10 455 -32 80 -19 92 -19 60 0
-20 12 -21 14 -4 9 11 -3 36 2 55 10 l34 16 -45 -5 c-38 -4 -41 -4 -20 5 14 6
40 8 58 5 30 -4 32 -3 20 11 -11 14 -9 14 20 -1 19 -10 36 -15 39 -12 8 7
-113 66 -191 92 -84 29 -214 54 -270 53 -22 -1 -86 -8 -141 -16z"/>
<path d="M3003 3780 c-64 -17 -129 -47 -120 -56 2 -2 37 8 78 22 62 22 93 26
194 26 102 1 133 -3 209 -25 49 -15 91 -25 94 -23 9 9 -61 37 -140 56 -104 25
-220 25 -315 0z"/>
<path d="M2340 3751 c0 -7 4 -21 10 -31 11 -21 16 -107 7 -117 -4 -3 -15 1
-25 10 -44 40 -110 58 -210 58 -98 -1 -148 -12 -233 -50 -53 -24 -105 -69 -93
-80 21 -19 112 -31 232 -31 123 0 163 6 301 46 21 6 22 5 11 -15 -6 -12 -9
-27 -7 -34 5 -14 41 64 52 112 8 37 -10 114 -31 132 -11 9 -14 9 -14 0z m-238
-145 c18 -27 -5 -52 -36 -40 -18 7 -27 39 -14 52 11 11 39 5 50 -12z m-102
-15 c0 -16 3 -36 6 -45 5 -13 -1 -16 -32 -15 -22 0 -56 3 -78 7 l-38 7 63 38
c35 20 67 37 71 37 5 0 8 -13 8 -29z m298 14 c29 -13 34 -18 22 -25 -29 -18
-57 -11 -62 15 -6 30 -7 29 40 10z"/>
<path d="M1979 3736 c-83 -14 -158 -53 -187 -96 -30 -45 -22 -48 19 -7 84 84
258 106 451 58 65 -15 31 8 -40 28 -88 26 -162 31 -243 17z"/>
<path d="M3055 3705 c-5 -2 -35 -11 -65 -20 -61 -18 -150 -73 -150 -92 0 -9
18 -13 55 -13 30 0 99 -7 153 -16 132 -21 230 -10 410 48 35 11 72 18 84 15
11 -3 17 -3 13 1 -3 4 -46 17 -93 29 -48 11 -112 28 -142 37 -48 14 -232 22
-265 11z m7 -76 l4 -41 -51 7 c-27 5 -67 8 -87 9 -21 0 -38 2 -38 3 0 9 127
63 146 63 18 0 23 -7 26 -41z m88 26 c17 -20 5 -45 -20 -45 -23 0 -35 22 -26
45 7 19 30 19 46 0z m265 -16 c14 0 9 -5 -15 -14 -48 -18 -50 -18 -50 6 0 17
4 20 23 15 12 -3 31 -6 42 -7z"/>
<path d="M2810 3246 c0 -4 9 -20 21 -35 12 -16 23 -49 26 -73 5 -39 2 -48 -26
-75 -17 -17 -44 -34 -61 -38 -32 -7 -32 -25 1 -25 33 0 78 28 94 60 19 36 19
93 1 128 -14 27 -56 71 -56 58z"/>
<path d="M2210 3211 c-5 -11 -10 -45 -10 -76 0 -49 4 -60 29 -86 16 -16 38
-29 48 -29 17 1 17 1 -1 15 -11 8 -23 15 -28 15 -14 0 -30 77 -27 128 2 29 3
52 2 52 -1 0 -7 -9 -13 -19z"/>
<path d="M2590 3163 c-26 -18 -26 -32 0 -30 11 1 20 5 20 10 0 4 5 5 11 1 14
-9 -10 -25 -26 -17 -5 3 -5 0 2 -7 18 -19 113 -26 124 -9 13 21 11 27 -15 45
-33 21 -91 25 -116 7z m75 -33 c3 -6 -1 -7 -9 -4 -18 7 -21 14 -7 14 6 0 13
-4 16 -10z"/>
<path d="M2292 3147 c-28 -29 -27 -33 3 -53 22 -14 30 -15 70 -3 25 7 45 16
45 20 0 13 -61 59 -79 59 -10 0 -27 -10 -39 -23z"/>
<path d="M3370 2675 c7 -9 15 -13 17 -11 7 7 -7 26 -19 26 -6 0 -6 -6 2 -15z"/>
<path d="M3632 2660 c0 -14 2 -19 5 -12 2 6 2 18 0 25 -3 6 -5 1 -5 -13z"/>
<path d="M3392 2610 c0 -19 2 -27 5 -17 2 9 2 25 0 35 -3 9 -5 1 -5 -18z"/>
<path d="M2662 2100 c0 -14 2 -19 5 -12 2 6 2 18 0 25 -3 6 -5 1 -5 -13z"/>
<path d="M4445 3338 c-58 -20 -120 -97 -97 -120 6 -6 18 4 30 24 11 18 35 41
52 51 31 18 32 18 45 0 8 -10 24 -46 36 -81 11 -34 24 -60 28 -57 14 8 -7 104
-28 134 -14 20 -17 31 -9 33 14 5 1 28 -15 27 -7 0 -25 -5 -42 -11z"/>
<path d="M4320 3083 c-40 -49 -44 -68 -26 -127 14 -47 14 -52 -5 -83 -22 -36
-22 -74 0 -81 10 -3 12 0 8 12 -4 9 3 27 17 43 21 24 27 26 57 17 44 -12 79
-7 79 13 0 10 -6 13 -16 9 -8 -3 -33 -3 -55 0 -37 6 -40 10 -55 59 -19 60 -12
90 31 138 29 30 31 37 11 37 -8 0 -29 -17 -46 -37z"/>
<path d="M4364 3048 c-18 -4 -35 -15 -38 -24 -9 -23 -1 -28 25 -14 12 7 43 10
70 8 27 -3 49 -1 49 3 0 21 -66 38 -106 27z"/>
</g>
</svg>
